<svg width="90" height="90" viewBox="0 0 90 90" fill="none" xmlns="http://www.w3.org/2000/svg">
<rect width="90" height="90" fill="#1E1E1E"/>
<path d="M50.8157 25.2648H51.0064L51.1017 34.5127L53.4852 33.178L55.1059 32.2246L57.2987 30.9852L59.0148 29.9364H59.2055V51.1017L58.9195 53.0085L58.3475 54.9153L57.5848 56.6314L56.822 57.8708L55.8686 59.1102L54.8199 60.2542L53.5805 61.303L52.1504 62.2564L50.1483 63.2098L48.7182 63.6864L46.8114 64.0678L46.0487 64.1631H43.6653L41.4725 63.7818L39.4703 63.1144L37.9449 62.3517L36.8009 61.6843L35.5614 60.7309L34.036 59.2055L32.7966 57.4894L32.0339 56.1547L31.7479 55.4873L31.8432 55.1059L33.0826 54.3432L35.5614 52.9131L38.2309 51.3877L40.7098 49.9576L42.7119 48.8136L42.9025 48.9089V49.767L43.0932 50.7203L43.4746 51.2924L43.9513 51.6737L44.6186 51.8644H45.286L46.1441 51.4831L46.6208 51.0064L46.9068 50.1483V41.6631L45.3814 42.6165L43.1886 43.8559L40.7098 45.286L38.0403 46.8114L36.2288 47.8602L31.2712 50.7203L30.9852 50.911H30.6992V36.9915L31.1759 36.6102L33.6547 35.1801L35.9428 33.8453L38.1356 32.6059L42.4259 30.1271L44.9047 28.697L47.5742 27.1716L50.053 25.7415L50.8157 25.2648Z" stroke="url(#paint0_linear_0_1)" stroke-width="0.95339"/>
<path d="M55.0106 36.9915H55.2013V50.339L54.9153 52.3411L54.3432 54.0572L53.5805 55.4873L52.8178 56.4407L51.9598 57.3941L50.625 58.4428L48.8136 59.3962L46.9068 59.9682L45.572 60.1589H44.428L42.9026 59.9682L41.2818 59.4915L39.7564 58.7288L38.7076 58.0614L37.5636 57.0127L37.3729 56.822L37.4682 56.4407L39.5657 55.2966L40.8051 54.5339L41.2818 54.7246L42.3305 55.3919L43.4746 55.7733L44.0466 55.8686H45.8581L47.2881 55.4873L48.3369 54.9152L49.2903 54.1525L50.053 53.1991L50.7204 51.7691L50.911 50.625L51.0064 39.2797L51.7691 38.803L54.3432 37.3729L55.0106 36.9915Z" stroke="url(#paint1_linear_0_1)" stroke-width="0.95339"/>
<path d="M46.7161 32.3199H47.0021V36.9915L46.2394 37.4682L44.142 38.6123L41.5678 40.1377L38.8983 41.6631L36.4195 43.0932L34.8941 43.9513H34.7034V39.2797L35.4661 38.803L38.1356 37.2775L40.4237 35.9428L45.0953 33.2733L46.7161 32.3199Z" stroke="url(#paint2_linear_0_1)" stroke-width="0.95339"/>
<defs>
<linearGradient id="paint0_linear_0_1" x1="101.631" y1="50.5297" x2="101.631" y2="102.108" gradientUnits="userSpaceOnUse">
<stop stop-color="#1595B6"/>
<stop offset="1" stop-color="#1595B6" stop-opacity="0"/>
</linearGradient>
<linearGradient id="paint1_linear_0_1" x1="105.826" y1="62.2563" x2="105.826" y2="113.835" gradientUnits="userSpaceOnUse">
<stop stop-color="#1595B6"/>
<stop offset="1" stop-color="#1595B6" stop-opacity="0"/>
</linearGradient>
<linearGradient id="paint2_linear_0_1" x1="97.5318" y1="57.5847" x2="97.5318" y2="109.163" gradientUnits="userSpaceOnUse">
<stop stop-color="#1595B6"/>
<stop offset="1" stop-color="#1595B6" stop-opacity="0"/>
</linearGradient>
</defs>
</svg>
